<?xml version="1.0" encoding="utf-8"?>
<!-- Generator: Adobe Illustrator 16.0.0, SVG Export Plug-In . SVG Version: 6.00 Build 0)  -->
<!DOCTYPE svg PUBLIC "-//W3C//DTD SVG 1.1//EN" "http://www.w3.org/Graphics/SVG/1.1/DTD/svg11.dtd">


<svg version="1.1" id="Layer_1" xmlns="http://www.w3.org/2000/svg" xmlns:xlink="http://www.w3.org/1999/xlink" x="0px" y="0px"
	 width="1200px" height="1000px" viewBox="0 0 1200 1000" enable-background="new 0 0 1200 1000" xml:space="preserve">
<g>
	<g>
		
			<image overflow="visible" opacity="0.21" width="590" height="576" xlink:href="9B4314F0.png"  transform="matrix(0.24 0 0 0.24 89.8936 90.3403)">
		</image>
		<g>
			<path d="M132.508,159.068h-24.663c-29.726-24.517-14.352-82.237,25.788-62.112c12.534,6.283,20.907,20.009,26.446,36.624
				c5.539-16.615,13.911-30.341,26.446-36.624c40.139-20.125,55.512,37.595,25.787,62.112H187.65c0,0,7.306-13.32,8.165-15.207
				c1.309-2.88,9.024-23.732-1.891-16.39c-14.772,9.932-18.143,45.382-19.756,60.982c-1.62,15.7-2.564,36.435-2.564,36.435h-1.418
				h-20.215h-1.42c0,0-0.941-20.735-2.563-36.435c-1.611-15.6-4.984-51.05-19.753-60.982c-10.918-7.342-3.201,13.509-1.893,16.39
				C125.201,145.749,132.508,159.068,132.508,159.068z"/>
		</g>
	</g>
</g>
<g>
	<g>
		
			<image overflow="visible" opacity="0.21" width="570" height="576" xlink:href="9B4314F1.png"  transform="matrix(0.24 0 0 0.24 449.1533 90.3398)">
		</image>
		<g>
			<path d="M451.586,93.313c0,0,9.741-3.138,26.754,5.708c17.72,9.213,24.876,33.92,38.608,34.237
				c13.74-0.316,20.896-25.024,38.615-34.237c17.012-8.846,26.751-5.708,26.751-5.708v24.834c0,0-11.058-0.713-17.121,3.923
				c-4.407,3.369-13.139,15.772-20.733,23.265c11.29,8.085,18.58,20.879,18.58,35.282c0,24.45-21.016,44.27-46.943,44.27
				c-25.925,0-46.943-19.82-46.943-44.27c0-14.825,7.728-27.949,19.589-35.982c-7.423-7.542-15.763-19.299-20.032-22.565
				c-6.066-4.637-17.124-3.923-17.124-3.923V93.313z M494.748,180.568c0,11.622,9.578,21.044,21.399,21.044
				c11.822,0,21.402-9.423,21.402-21.044c0-11.623-9.58-21.043-21.402-21.043C504.326,159.524,494.748,168.945,494.748,180.568z"/>
		</g>
	</g>
</g>
<g>
	<g>
		
			<image overflow="visible" opacity="0.21" width="534" height="576" xlink:href="9B4314F7.png"  transform="matrix(0.24 0 0 0.24 278.8472 535.2695)">
		</image>
		<g>
			<path d="M281.28,642.854c6.758-1.975,13.536-3.657,20.479-4.862v-68.464c-6.943-1.202-13.722-2.889-20.479-4.861v-25.731
				c20.14,5.881,38.151,8.367,59.256,8.367c22.451,0,41.492-2.711,62.708-9.601v25.81c-7.406,2.403-14.741,4.354-22.418,5.748v69
				c7.673,1.396,15.014,3.345,22.418,5.752v25.806c-21.216-6.89-40.257-9.603-62.708-9.603c-21.108,0-39.116,2.484-59.256,8.369
				V642.854z M340.536,634.828c2.772,0,8.387,0.048,11.09,0.134v-62.4c-2.703,0.086-8.317,0.131-11.09,0.131
				c-2.253,0-7.365-0.03-9.577-0.088v62.311C333.171,634.86,338.283,634.828,340.536,634.828z"/>
		</g>
	</g>
</g>
<g>
	<g>
		
			<image overflow="visible" opacity="0.21" width="619" height="576" xlink:href="9B4314F2.png"  transform="matrix(0.24 0 0 0.24 443.3447 312.8057)">
		</image>
		<g>
			<path d="M451.554,349.396c12.14-19.993,41.664-34.157,74.388-34.157c21.764,0,41.27,5.107,59.015,17.873l0.134,28.785
				c-24.063-18.354-54.083-26.965-82.937-15.973c5.305,5.773,8.553,13.487,8.553,21.957c0,17.932-14.534,32.466-32.463,32.466
				s-32.465-14.534-32.465-32.466C445.778,361.02,447.913,354.641,451.554,349.396z M478.154,374.19
				c3.688,0,6.677-2.991,6.677-6.676c0-3.69-2.989-6.682-6.677-6.682c-3.685,0-6.679,2.992-6.679,6.682
				C471.476,371.199,474.47,374.19,478.154,374.19z M555.743,388.402c-3.688,0-6.676,2.991-6.676,6.683
				c0,3.683,2.987,6.675,6.676,6.675c3.688,0,6.678-2.992,6.678-6.675C562.421,391.393,559.431,388.402,555.743,388.402z
				 M582.347,413.199c-12.14,19.993-41.667,34.155-74.388,34.155c-21.766,0-41.27-5.104-59.015-17.868l-0.138-28.786
				c24.067,18.352,54.087,26.965,82.94,15.973c-5.309-5.777-8.553-13.489-8.553-21.958c0-17.931,14.532-32.465,32.461-32.465
				s32.467,14.534,32.467,32.465C588.122,401.576,585.987,407.951,582.347,413.199z"/>
		</g>
	</g>
</g>
<g>
	<g>
		
			<image overflow="visible" opacity="0.21" width="484" height="576" xlink:href="9B4314F3.png"  transform="matrix(0.24 0 0 0.24 284.7529 312.8052)">
		</image>
		<g>
			<path d="M318.047,395.155c3.53,0,6.393-2.862,6.393-6.389c0-3.529-2.862-6.39-6.393-6.39c-3.529,0-6.391,2.861-6.391,6.39
				C311.656,392.293,314.518,395.155,318.047,395.155z M287.187,388.807c0-16.813,13.543-30.463,30.316-30.631
				c-0.329-2.507-0.486-5.101-0.406-7.826c1.522-53.351,84.431-42.299,71.899,8.895c-4.643,18.959-12.738,36.98-20.216,53.432
				c-6.988,15.382,3.868,14.248,4.883,9.287l23.677,0.519c-0.863,39.456-73.244,31.277-50.121-19.604
				c7.584-16.686,13.868-33.014,18.772-49.264c5.613-18.59-37.032-25.554-21.661,14.091c2.205,5.688,4.119,12.674,4.085,19.555
				l0.039,1.548c0,16.916-13.715,30.634-30.635,30.634C300.901,419.441,287.187,405.722,287.187,388.807z"/>
		</g>
	</g>
</g>
<g>
	<g>
		
			<image overflow="visible" opacity="0.21" width="575" height="576" xlink:href="9B4314FE.png"  transform="matrix(0.24 0 0 0.24 273.9072 90.3394)">
		</image>
		<g>
			<path d="M319.848,113.102c0-2.213-0.28-4.491-1.243-6.548c-0.769-1.296-1.799-1.37-2.62-0.895
				c-1.054,0.612-2.295,2.418-2.295,5.9c0.18,23.624-0.45,49.096-0.799,72.608h-23.207v-71.066c0-6.367-2.637-11.836-10.834-11.868
				l-2.509-0.011c5.19-5.909,10.353-8.45,18.694-8.45c5.376,0,10.4,2.131,13.876,5.756l0.562-0.511l0.661-0.568
				c4.998-3.852,10.721-4.677,15.063-4.677c5.37,0,10.385,2.123,13.858,5.737l0.542-0.492l0.661-0.568
				c5-3.852,10.722-4.677,15.064-4.677c9.842,0,18.447,7.124,18.635,17.401c0.107,5.705,0.097,13.29,0.027,21.555
				c2.27-6.421,6.705-14.564,14.612-14.564c6.53,0,19.587,0.325,19.587,40.152c0,28.884-15.01,45.383-25.396,53.458
				c1.338,0.517,2.746,0.73,4.177,0.73c7.183,0,13.057-5.875,13.057-5.875v8.161c0,0-2.447,7.997-20.4,7.997
				c-5.35,0-9.712-0.86-13.275-2.384c-11.064,3.525-24.429,5.486-24.429,5.486v-8.815c0,0,6.868-0.345,15.259-3.92
				c-5.468-7.437-6.6-18.095-7.139-27.987l-0.063-2.369v-68.697c0-2.213-0.281-4.491-1.245-6.548
				c-0.741-1.253-1.723-1.345-2.486-0.965c-0.983,0.487-2.207,2.032-2.4,5.123c0.279,21.654-0.476,52.433-0.787,73.456h-23.207
				V113.102z M373.689,154.457l-0.011,0.588l-0.039,2.421c-0.177,10.5-0.365,20.178-0.46,26.702c0,6.432,0.563,11.441,1.548,15.31
				c7.118-8.28,12.566-20.677,12.566-39.224C387.294,107.542,374.096,141.57,373.689,154.457z"/>
		</g>
	</g>
</g>
<g>
	<g>
		
			<image overflow="visible" opacity="0.21" width="590" height="576" xlink:href="9B4314FF.png"  transform="matrix(0.24 0 0 0.24 89.8936 312.8057)">
		</image>
		<g>
			<path d="M92.327,421.848h135.504v25.505H92.327V421.848z M171.336,401.296v-15.693c7.541-4.12,12.514-11.857,12.514-20.743
				c0-13.012-10.669-23.56-23.824-23.56c-13.16,0-23.827,10.548-23.827,23.56c0,8.777,4.854,16.434,12.051,20.488v15.948
				l-0.089,9.702H92.327v-25.5h20.247c-3.054-6.298-4.754-13.308-4.754-20.692c0-27.376,23.395-49.568,52.259-49.568
				c28.86,0,52.261,22.192,52.261,49.568c0,7.384-1.701,14.395-4.756,20.692h20.247v25.5H171.34L171.336,401.296z"/>
		</g>
	</g>
</g>
<g>
	<path d="M551.896,669.432c-4.019,0-7.55-0.422-10.658-1.204c-4.268-1.517-8.034-3.307-12.631-9.622
		c-0.437-0.596-0.85-1.219-1.234-1.855l-0.261-0.431c-4.265-7.341-5.241-17.015-5.734-26.062l-0.066-2.398v-69.572
		c0-2.238-0.284-4.549-1.257-6.633c-0.753-1.268-1.75-1.36-2.522-0.973c-0.994,0.492-2.231,2.059-2.431,5.188
		c0.284,21.93-0.48,53.102-0.796,74.389h-23.504v-71.971c0-2.238-0.28-4.549-1.257-6.633c-0.778-1.311-1.821-1.384-2.656-0.9
		c-1.066,0.617-2.323,2.446-2.323,5.975c0.184,23.925-0.453,49.718-0.811,73.529h-23.5v-71.971c0-6.446-2.669-11.985-10.974-12.016
		l-2.537-0.013c5.255-5.985,10.48-8.557,18.93-8.557c5.446,0,10.535,2.157,14.053,5.831l0.571-0.522l0.669-0.572
		c5.06-3.899,10.856-4.736,15.255-4.736c5.436,0,10.515,2.149,14.035,5.808l0.549-0.499l0.667-0.572
		c5.063-3.899,10.858-4.736,15.259-4.736c9.968,0,18.682,7.216,18.873,17.619c0.05,2.669,0.075,5.747,0.078,9.106
		c0,18.897-0.84,71.702-0.212,75.478l0.3,1.675c0.159,0.775,0.324,1.513,0.505,2.225c2.951,11.375,7.215,13.986,14.956,13.818
		c3.459-0.313,6.535-1.597,8.932-2.958l-4.979-8.965l21.975,0.716l-8.755,23.401c-0.066-0.261-1.876-3.602-4.137-7.719
		C572.223,664.783,566.563,669.432,551.896,669.432z"/>
</g>
<g>
	<g>
		
			<image overflow="visible" opacity="0.21" width="528" height="576" xlink:href="9B4314F4.png"  transform="matrix(0.24 0 0 0.24 454.2607 757.7373)">
		</image>
		<g>
			<path d="M524.89,816.843c2.03-23.397,11.79-43.759,25.885-56.673h25.83c-14.094,12.914-22.212,33.275-23.868,56.673h20.807
				v23.392h-20.325c2.468,21.542,10.627,40.11,23.988,52.052h-25.833c-13.358-11.941-22.933-30.51-25.902-52.052h-17.043
				c-2.97,21.542-12.542,40.11-25.904,52.052h-25.829c13.361-11.941,21.517-30.51,23.988-52.052h-22.016v-23.392h22.495
				c-1.657-23.397-9.772-43.759-23.866-56.673h25.83c14.095,12.914,23.853,33.275,25.881,56.673H524.89z"/>
		</g>
	</g>
</g>
<g>
	<polygon points="92.327,822.971 92.327,793.125 135.985,760.621 146.854,784.341 174.327,760.17 185.491,783.87 213.026,760.705 
		227.831,785.463 227.438,824.706 206.429,797.363 177.571,821.069 166.857,796.943 138.101,819.598 125.906,796.278 	"/>
	<polygon points="92.327,890.546 92.327,860.706 135.985,828.201 146.854,851.916 174.327,827.746 185.491,851.449 213.026,828.286 
		227.831,853.041 227.438,892.286 206.429,864.945 177.571,888.646 166.857,864.521 138.101,887.174 125.906,863.856 	"/>
</g>
<g>
	<g>
		
			<image overflow="visible" opacity="0.21" width="455" height="576" xlink:href="9B4314F5.png"  transform="matrix(0.24 0 0 0.24 288.2427 757.7363)">
		</image>
		<g>
			<path d="M373.37,815.251c-7.067,0-12.761,2.676-17.403,6.824c-4.021-24.858-3.186-61.598-24.209-61.598
				c-10.488,0-15.811,9.305-18.039,14.074l-0.684,1.537c-4.584-8.339-11.862-15.919-22.359-15.919c0,0,0.038,15.485,0.038,19.267
				c0,0,5.959,0.526,7.98,4.078c4.423,7.766,4.808,10.641,5.623,39.813l19.063-0.027c0.663-11.007,2.47-34.057,7.025-33.3
				c3.631-0.91,2.527,24.683,4.842,36.896c1.446,7.624,3.549,13.923,6.102,19.074c-2.437,6.375-4.192,12.419-5.667,16.599
				c-1.144,3.237-9.998,8.286-16.369,7.492l-2.394,20.594c0,0,2.003,0.912,5.323,1.363c18.942,2.557,28.727-13.547,35.449-28.922
				c16.852,7.545,36.158-5.394,36.158-22.3C393.851,824.52,382.944,815.251,373.37,815.251z M372.713,843.947
				c-2.667,0.691-4.906,0.54-6.805-0.295c1.828-3.606,3.638-5.977,5.696-6.251C377.524,837.401,374.582,843.459,372.713,843.947z"/>
		</g>
	</g>
</g>
<g>
	<g>
		
			<image overflow="visible" opacity="0.21" width="590" height="576" xlink:href="70B2070F.png"  transform="matrix(0.24 0 0 0.24 89.8936 535.2695)">
		</image>
		<g>
			<path d="M164.314,663.937l-24.218-23.48l-30.363,29.361l-17.406-16.869l30.342-29.401c-18.303-17.76-23.35-22.68-24.16-23.487
				l17.406-16.866l24.199,23.446l38.748-37.544c-41.724-10.107-32.355-7.87-33.814-8.246l5.956-23.147l61.685,14.902l15.143,59.722
				l-23.971,5.791l-8.1-31.559l-38.2,36.988l24.22,23.47L164.314,663.937z"/>
		</g>
	</g>
</g>
<g>
	<g>
		
			<image overflow="visible" opacity="0.22" width="576" height="576" xlink:href="70B2070D.png"  transform="matrix(0.24 0 0 0.24 637.6162 90.3394)">
		</image>
		<g>
			<path d="M640.05,111.581c0-10.388,8.419-18.808,18.807-18.808h94.504c10.388,0,18.807,8.42,18.807,18.808v50.072
				c-0.828-0.054-1.751-0.073-2.743-0.031c0.084-3.46,0.241-10.076-0.03-14.829c-0.376-6.567-8.302-13.287-11.322-10.567
				c-0.441,0.394-0.791,0.923-1.069,1.55c1.055,4.118,1.613,8.442,1.613,12.897c0,5.157-0.75,9.233-2.148,13.928
				c1.275-0.763,2.575-1.131,3.794-1.582c1.556-0.578,2.988-0.737,4.235-0.675c-1.15,0.301-2.312,0.713-3.445,1.261
				c-6.875,3.326-13.434,9.283-15.849,12c-2.416,2.719-5.283,7.926-5.283,7.926s6.49-7.021,11.474-7.473
				c4.981-0.454,7.995-4.753,12.073-7.926c2.497-1.938,6.006-3.654,8.701-4.689v42.64c0,10.388-8.419,18.807-18.807,18.807h-94.504
				c-10.388,0-18.807-8.419-18.807-18.807v-42.617c2.687,1.037,6.167,2.741,8.643,4.667c4.074,3.173,7.094,7.473,12.072,7.926
				c4.983,0.452,11.473,7.473,11.473,7.473s-2.865-5.208-5.282-7.926c-2.414-2.718-8.972-8.674-15.849-12
				c-1.134-0.547-2.297-0.959-3.443-1.261c1.245-0.062,2.68,0.097,4.234,0.675c1.216,0.451,2.518,0.819,3.795,1.582
				c-1.398-4.694-2.151-8.771-2.151-13.928c0-4.455,0.56-8.779,1.615-12.897c-0.279-0.627-0.628-1.156-1.069-1.55
				c-3.02-2.72-10.945,4-11.322,10.567c-0.271,4.753-0.111,11.369-0.028,14.829c-0.97-0.042-1.876-0.022-2.687,0.027V111.581z
				 M645.208,133.538c0,0,9.813-8.905,21.132-6.941c11.32,1.96,23.093,20.073,23.093,20.073s5.768-2.067,8.604-3.772
				c2.69-1.618,4.829-3.32,4.829-3.32s-6.062,8.801-14.491,11.321c-4.767,1.428-8.301,3.472-7.846,5.586
				c0.075,0.354,0.203,0.58,0.375,0.717c1.217-0.245,2.899-0.495,4.454-0.415c4.528,0.224,6.185,8.751,5.886,8.604
				c0,0-0.127,0.049-0.349,0.123c-1.15,0.569-6.36,2.614-10.354-2.057l1.497,3.895c0,0-4.528,5.284-2.264,10.415
				c2.264,5.133,8.002,9.965,9.207,12.231c1.206,2.264-0.179,6.38,2.69,8.946c1.513,1.355,11.65,2.672,12.556,1.767
				c0.903-0.906,0.451-3.921-1.361-4.677c-1.812-0.755-6.793-2.415-6.793-3.772c0-2.206,8.421-1.897,9.895-1.813l0.113-0.008
				l0.107-0.005c1.477-0.071,9.896-0.38,9.896,1.826c0,1.357-4.981,3.017-6.795,3.772c-1.81,0.756-2.264,3.771-1.357,4.677
				c0.903,0.905,11.043-0.412,12.555-1.767c2.868-2.566,1.484-6.682,2.689-8.946c1.208-2.266,6.945-7.098,9.21-12.231
				c2.266-5.131-2.265-10.415-2.265-10.415l1.497-3.895c-3.996,4.671-9.208,2.626-10.355,2.057c-0.223-0.074-0.35-0.123-0.35-0.123
				c-0.302,0.147,1.361-8.38,5.885-8.604c1.558-0.081,3.239,0.17,4.459,0.415c0.168-0.138,0.297-0.364,0.372-0.717
				c0.454-2.115-3.08-4.158-7.849-5.586c-8.428-2.52-14.491-11.321-14.491-11.321s2.144,1.703,4.831,3.32
				c2.839,1.706,8.605,3.772,8.605,3.772s11.773-18.113,23.09-20.073c11.322-1.964,21.135,6.941,21.135,6.941
				s-0.451-11.323-22.34-19.774c-20.858-8.057-37.056,17.615-38.529,20.044c-1.476-2.429-17.674-28.101-38.537-20.044
				C645.658,122.215,645.208,133.538,645.208,133.538z M705.86,203.093c-6.19,0-10.34-0.753-10.64-0.149
				c-0.305,0.601,1.734,4.906,4.904,5.509c3.169,0.604,5.888,0.604,5.888,0.604L705.86,203.093z M706.297,203.093l-0.146,5.964
				c0,0,2.713,0,5.886-0.604c3.166-0.604,5.207-4.909,4.901-5.509C716.637,202.34,712.487,203.093,706.297,203.093z"/>
		</g>
	</g>
</g>
<g>
	<g>
		
			<image overflow="visible" opacity="0.22" width="576" height="576" xlink:href="70B2070B.png"  transform="matrix(0.24 0 0 0.24 832.5791 90.3394)">
		</image>
		<g>
			<path d="M847.908,93.718c1.856-0.617,3.846-0.945,5.909-0.945h94.502c2.064,0,4.052,0.328,5.91,0.945
				c0.738,1.561,1.663,3.22,2.813,4.977c9.36,14.331-9.934,25.602-16.987,27.467c-7.051,1.868-14.35,2.091-14.35,2.091
				s-0.509-2.309-4.27-2.309h-15.151H895.85h-15.146c-3.764,0-4.275,2.309-4.275,2.309s-7.292-0.223-14.344-2.091
				c-7.055-1.865-26.352-13.136-16.988-27.467C846.247,96.938,847.172,95.278,847.908,93.718z M967.128,121.987v84.095
				c0,10.386-8.42,18.807-18.809,18.807h-94.502c-10.388,0-18.805-8.421-18.805-18.807v-84.095c1.112,2.322,2.635,4.7,4.59,7.148
				c8.152,10.229,30.162,17.164,30.162,17.164s0.107,0.233,0.901,1.175c0.798,0.94,2.901,1.293,2.901,1.293
				s-2.273,1.408-4.416,2.231c-2.139,0.822-6.823-3.76-10.297-5.524c-3.47-1.763-11.76,0.235-11.848,3.176
				c-0.09,2.937,3.03,8.696,8.163,9.99c5.134,1.291,6.139-0.824,8.909,0.825c2.771,1.644,7.424,3.29,7.424,3.29
				s1.281,4.346,2.419,9.52c1.134,5.172,9.28,23.626,10.256,26.446c0.975,2.823-0.787,4.911,0.465,7.995
				c1.849,4.552,9.983,1.463,16.088,1.417c6.104,0.046,14.919,3.135,16.765-1.417c1.252-3.084-0.506-5.172,0.469-7.995
				c0.973-2.82,9.116-21.273,10.252-26.446c1.14-5.174,2.418-9.52,2.418-9.52s4.65-1.646,7.425-3.29
				c2.774-1.649,3.775,0.466,8.909-0.825c5.133-1.294,8.249-7.053,8.161-9.99c-0.086-2.94-8.372-4.938-11.848-3.176
				c-3.476,1.764-8.154,6.346-10.297,5.524c-2.14-0.823-4.411-2.231-4.411-2.231s2.099-0.354,2.897-1.293
				c0.791-0.941,0.905-1.175,0.905-1.175s22.007-6.935,30.163-17.164C964.494,126.687,966.013,124.309,967.128,121.987z
				 M890.028,211.766c0,0,1.493,1.99,3.103,2.355c3.145,0.71,12.731,0.71,15.876,0c1.613-0.365,3.103-2.355,3.103-2.355
				s-7.202-1.409-11.459-1.404C896.386,210.361,890.028,211.766,890.028,211.766z M888.032,197.535c0.5,0,2.391-0.928,3.829,1.536
				c1.433,2.466,0.745,5.083,0.745,5.083s-3.851-0.462-4.312-2.002C887.833,200.613,888.032,197.535,888.032,197.535z
				 M875.168,156.772c0,0,1.815,0.339,3.981,2.434c2.168,2.093,1.576,8.445,1.576,8.445s-3.368-0.47-5.209-2.16
				c-1.842-1.691-2.11-3.988-1.928-5.544C873.77,158.394,875.168,156.772,875.168,156.772z M914.168,197.535
				c0,0,0.195,3.078-0.267,4.617c-0.459,1.54-4.309,2.002-4.309,2.002s-0.687-2.617,0.746-5.083
				C911.775,196.607,913.667,197.535,914.168,197.535z M927.357,156.772c0,0,1.4,1.622,1.581,3.175
				c0.183,1.556-0.088,3.853-1.928,5.544c-1.839,1.69-5.207,2.16-5.207,2.16s-0.594-6.352,1.572-8.445
				C925.544,157.111,927.357,156.772,927.357,156.772z"/>
		</g>
	</g>
</g>
<g>
	<g>
		
			<image overflow="visible" opacity="0.22" width="576" height="576" xlink:href="70B20705.png"  transform="matrix(0.24 0 0 0.24 832.5791 312.8047)">
		</image>
		<g>
			<path d="M835.013,334.045c0-10.39,8.421-18.807,18.809-18.807h94.502c10.388,0,18.805,8.417,18.805,18.807v94.503
				c0,10.384-8.417,18.805-18.805,18.805h-94.502c-10.388,0-18.809-8.421-18.809-18.805V334.045z M839.119,361.775
				c0,0,5.313,17.423,14.889,23.283c4.984,3.057,10.592,4.903,14.831,5.979c-5.323,0.343-14.47,0.697-18.194-0.575
				c-9.46-3.219-13.231-9.379-13.231-9.379s2.362,10.253,12.818,14.366c7.84,3.087,16.523,3.49,20.379,3.5
				c0.139,0.348,0.288,0.696,0.449,1.04c-4.111,1.104-9.29,2.901-13.931,5.743c-9.582,5.865-14.891,23.287-14.891,23.287
				s11.157-15.7,16.158-18.444c3.396-1.865,12.222-3.103,17.554-3.701c0.383,0.373,0.772,0.737,1.177,1.095
				c-2.901,1.427-5.974,3.234-8.767,5.452c-8.794,6.99-8.733,21.08-8.733,21.08s1.753-10.316,12.355-17.462
				c2.572-1.726,8.068-3.268,12.553-4.314c4.453,2.041,11.039,3.205,16.541,3.205h0.243h0.237c5.502,0,11.61-1.164,16.065-3.205
				c4.487,1.046,9.982,2.588,12.556,4.314c10.604,7.146,12.355,17.462,12.355,17.462s0.06-14.09-8.733-21.08
				c-2.794-2.218-5.866-4.024-8.768-5.452c0.406-0.357,0.796-0.722,1.177-1.095c5.33,0.598,14.158,1.835,17.552,3.701
				c5.002,2.744,16.161,18.444,16.161,18.444s-5.309-17.422-14.89-23.287c-4.64-2.842-9.819-4.639-13.928-5.743
				c0.155-0.344,0.303-0.692,0.445-1.04c3.853-0.01,12.538-0.413,20.379-3.5c10.453-4.113,12.819-14.366,12.819-14.366
				s-3.772,6.16-13.229,9.379c-3.729,1.272-12.874,0.918-18.195,0.575c4.231-1.076,9.845-2.922,14.827-5.979
				c9.582-5.86,14.889-23.283,14.889-23.283s-7.773,14.386-16.16,18.445c-2.566,1.241-8.008,2.271-12.813,2.994
				c3.65-2.455,6.391-5.596,8.608-9.458c1.992-2.965,4.743-13.777-1.807-27.205c-7.286-14.951-22.416-21.762-22.416-21.762
				s10.527,8.451,10.676,17.031c0.125,7.273,3.046,12.354,3.046,12.354s-7.206-7.524-8.562-12.923
				c-1.361-5.399-3.035-10.802-3.035-10.802s-4.059,11.582,3.922,27.946c2.452,5.03,4.951,8.334,7.236,10.498
				c-2.507,3.746-0.502,5.625-1.806,8.388c-0.329,0.692-1.8,1.163-2.428,1.483c-5.367-6.951-14.982-10.174-25.945-10.174h-0.48
				c-10.964,0-21.056,3.224-26.425,10.174c-0.619-0.32-2.097-0.791-2.418-1.483c-1.306-2.763,0.695-4.642-1.807-8.388
				c2.284-2.164,4.782-5.468,7.234-10.498c7.982-16.364,3.926-27.946,3.926-27.946s-1.685,5.403-3.036,10.802
				c-1.363,5.399-8.561,12.923-8.561,12.923s2.913-5.081,3.039-12.354c0.151-8.58,10.68-17.031,10.68-17.031
				s-15.128,6.812-22.422,21.762c-6.548,13.427-3.799,24.24-1.809,27.205c2.228,3.862,4.964,7.003,8.612,9.458
				c-4.808-0.723-10.249-1.753-12.81-2.994C846.893,376.161,839.119,361.775,839.119,361.775z"/>
		</g>
	</g>
</g>
<g>
	<g>
		
			<image overflow="visible" opacity="0.22" width="514" height="576" xlink:href="70B20707.png"  transform="matrix(0.24 0 0 0.24 832.5791 535.2695)">
		</image>
		<g>
			<path d="M835.013,556.51c0-10.387,8.417-18.808,18.805-18.808h85.924c-5.04,1.374-10.15,3.123-13.668,5.201
				c-3.005,0.056-6.046,0.831-9.03,2.597c-18.197,10.793-14.669,24.663-20.313,27.255c-5.643,2.587-12.693,5.874-15.045,13.164
				c-2.354,7.286-19.276,8.933-19.276,8.933s11.471,2.212,17.838-0.434c-0.172,0.529-0.327,1.077-0.462,1.645
				c-1.942,8.512-21.005,12.059-21.005,12.059s15.477,1.609,21.778-3.248c6.295-4.854,5.739-11.264,11.321-12.021
				c1.22-0.164,2.568-0.547,3.996-1.133c-1.826,2.273-3.521,4.811-4.942,7.613c-8.113,15.984-9.609,23.657-20.452,30.207
				c-9.669,5.845-24.685,15.283-28.446,23.745c-1.412,3.18-1.863,7.058-1.872,10.656c-3.19-3.369-5.149-7.918-5.149-12.928V556.51z
				 M952.351,669.387c-1.295,0.284-2.643,0.433-4.023,0.433h-3.145c-1.844-4.87-3.764-10.161-3.942-11.48
				c-0.026-0.197-0.075-0.437-0.146-0.712c1.183-0.161,2.39-0.49,3.597-1.059c2.615-1.228,4.306-5.562,5.296-11.034
				C950.516,653.639,951.238,661.946,952.351,669.387z M895.787,669.819h-7.365c0.772-1.472,1.45-2.949,2.089-4.344
				c1.916-4.183,7.957-3.333,15.354-10.002c-1.129,2.911-2.331,5.212-3.599,6.473C899.683,664.529,897.51,667.214,895.787,669.819z
				 M879.223,669.819h-25.405c-4.52,0-8.669-1.595-11.915-4.255c1.186-6.72,4.432-15.255,13.061-19.568
				c9.525-4.76,23.745-4.703,31.035-12.222c0.826-0.852,1.62-1.807,2.396-2.822c-0.239,2.593-0.504,4.546-2.074,5.995
				c-4.566,4.205-10.26,9.512-10.238,17.17c0.015,7.657-15.573,14.45-15.573,14.45s13.541-1.68,17.967-7.072
				c4.428-5.393,2.683-10.758,7.308-12.511c2.703-1.02,5.849-3.538,8.868-7.171c-1.344,3.916-2.815,7.06-4.371,8.614
				c-6.82,6.816-10.816,14.341-11.05,19.277L879.223,669.819z M943.208,625.912c2.609,14.834,1.869,26.312-3.17,28.633
				c-1.57-3.872-4.387-8.898-6.789-8.898c-3.409,0-6.7,0.938-14.573,0.115c-7.879-0.819-9.404-4.232-9.879-7.52
				c-0.467-3.295,3.293-7.055,2.116-7.524c-1.177-0.471-2.583-1.179-3.878-2.704c-1.293-1.526,1.646-5.404,1.646-5.404
				s-1.175-1.178-1.999-2.236c-0.819-1.058,2.824-6.112,2.824-7.049c0-0.941-1.884-1.414-3.529-1.885
				c-1.646-0.467-5.602-1.109-4.696-5.168c0.701-3.177,10.105-12.697,10.105-16.934c0-2.213-2.823-7.988-2.354-13.163
				c0.229-2.488,2.31-10.812,7.557-18.773c0.206,3.486,1.694,15.265,12.196,24.183c2.417,2.057,4.564,3.775,6.457,5.334
				c-1.57,3.372-2.708,9.149-0.592,18.557c4.048,18.02,3.818,28.453-1.876,31.358c-4.966,2.536-9.126-0.054-10.105-0.755
				c1.352,0.994,8.703,5.98,15.108,2.261C940.661,636.661,942.36,631.739,943.208,625.912z M916.916,596.346
				c0,0,2.371,0.571,4.929,0.301c1.34-0.136,3.334-1.143,4.743-1.781c-0.953-1.007-1.846-1.812-2.595-2.282
				c-4.02-2.493-5.252-2.155-7.111-0.608c-0.064,0.283-0.097,0.584-0.092,0.898C916.873,595.277,916.916,596.346,916.916,596.346z"
				/>
		</g>
	</g>
</g>
<g>
	<g>
		
			<image overflow="visible" opacity="0.22" width="576" height="576" xlink:href="70B2071A.png"  transform="matrix(0.24 0 0 0.24 832.5791 757.7373)">
		</image>
		<g>
			<path d="M835.013,778.982c0-10.392,8.421-18.813,18.809-18.813h94.498c10.389,0,18.809,8.421,18.809,18.813v94.502
				c0,10.386-8.42,18.802-18.809,18.802h-3.026c0.912-2.791,0.104-4.826-0.361-5.56l0.021-0.129c1.804-1.241,2.45-2.814,2.524-4.328
				c4.322-1.188,6.374-14.464-5.446-17.535c-12.127-3.147-19.317,6.87-19.317,6.87s2.837-2.009,7.001-0.718
				c4.175,1.288,0.762,5.153,3.79,9.591c1.098,1.609,2.603,2.372,4.285,2.661c-3.16,2.562-3.622,4.489-3.561,5.801
				c-0.146,0.023-0.301,0.056-0.455,0.088c-3.098,0.68-4.982,1.992-6.066,3.078l-0.379,0.039c-0.279-0.148-0.587-0.299-0.923-0.449
				c-1.535-0.661-3.37-0.669-4.926-0.479c-0.451-0.299-1.011-0.607-1.699-0.901c-0.966-0.424-2.054-0.579-3.12-0.59
				c-6.26-4.239-7.025-13.517-3.609-24.472c1.329-4.244,2.058-10.331,2.404-16.888c5.09,0.8,11.32,1.629,13.003,2.65
				c3.606,2.189,10.177,11.862,10.177,11.862s-1.59-9.583-8.411-14.076c-2.345-1.553-9.514-3.538-14.59-4.99
				c0.028-0.919,0.043-1.835,0.062-2.755c4.773,0.77,15.903,1.041,18.379,2.282c3.828,1.931,11.415,11.103,11.415,11.103
				s-2.617-9.434-9.89-13.435c-3.525-1.932-16.428-4.057-19.706-5.049c0.016,0.054-0.064,0.445-0.181,0.981l-0.008-1.266
				c4.904-0.344,15.674-3.579,18.438-2.858c4.287,1.121,14.399,8.537,14.399,8.537s-5.371-8.648-13.622-11.103
				c-3.704-1.1-14.929,0.467-19.301,0.44c-0.018-0.705-0.042-1.402-0.063-2.086c5.193-1.221,14.204-4.808,16.825-4.406
				c4.43,0.691,15.576,7.054,15.576,7.054s-6.627-8.049-15.19-9.676c-4.024-0.759-13.655,2.421-17.397,2.554
				c-0.172-3.338-0.377-6.247-0.59-8.467c4.557,0.691,11.99,0.747,15.795-0.721c0.76-0.296,1.407-0.692,1.932-1.154
				c0.138-0.067,0.277-0.146,0.413-0.23c3.441-2.188,4.271-9.079,6.013-12.932c3.172-3.25,3.23-10.705-0.168-18.12
				c-0.934-2.028-2.031-3.869-3.233-5.473c-0.74-1.202-1.652-2.43-2.772-3.646c-7.434-8.084-19.832-9.483-19.832-9.483
				s9.088,3.334,10.275,8.75c1.011,4.593,3.873,7.26,3.873,7.26s-6.439-3.382-8.151-6.552c-1.711-3.165-2.863-4.978-2.863-4.978
				s-0.862,5.919,2.809,13.277c0.3,2.631,1.098,5.49,2.407,8.353c2.477,5.408,6.206,9.512,9.826,11.297
				c-0.504,2.033-2.648,4.811-4.199,6.628c-1.592-0.078-3.685-1.336-6.586-1.91c-6.743-1.342-9.626,1.123-10.639,2.429
				c-2.543-1.073-6.088-2.031-10.51-2.031c-4.246,0-7.637,0.835-10.112,1.747c-1.191-1.345-4.121-3.391-10.396-2.145
				c-2.9,0.574-5.001,1.832-6.589,1.91c-1.546-1.817-3.691-4.595-4.203-6.628c3.629-1.785,7.354-5.889,9.833-11.297
				c1.31-2.862,2.105-5.722,2.404-8.353c3.674-7.358,2.812-13.277,2.812-13.277s-1.151,1.813-2.861,4.978
				c-1.718,3.17-8.152,6.552-8.152,6.552s2.861-2.667,3.87-7.26c1.191-5.416,10.279-8.75,10.279-8.75s-12.398,1.399-19.832,9.483
				c-1.125,1.216-2.037,2.443-2.772,3.646c-1.203,1.604-2.309,3.444-3.235,5.473c-3.396,7.415-3.338,14.87-0.168,18.12
				c1.738,3.853,2.566,10.744,6.01,12.932c0.139,0.084,0.271,0.163,0.411,0.23c0.529,0.462,1.172,0.858,1.938,1.154
				c3.731,1.439,10.948,1.418,15.52,0.76c-0.202,2.304-0.431,5.194-0.64,8.353c-4.213-0.501-12.759-3.184-16.489-2.479
				c-8.563,1.627-15.19,9.676-15.19,9.676s11.151-6.362,15.578-7.054c2.463-0.383,10.569,2.769,15.853,4.162
				c-0.045,0.767-0.082,1.539-0.118,2.315c-4.894-0.164-14.827-1.446-18.277-0.426c-8.251,2.454-13.614,11.103-13.614,11.103
				s10.105-7.416,14.399-8.537c2.566-0.671,12.073,2.082,17.335,2.745l-0.015,0.646c-4.294,1.071-15.532,3.02-18.781,4.801
				c-7.276,4.001-9.89,13.435-9.89,13.435s7.588-9.172,11.415-11.103c2.304-1.151,12.048-1.466,17.256-2.124
				c0.023,1.005,0.068,1.967,0.133,2.896c-4.969,1.418-11.351,3.242-13.54,4.691c-6.819,4.493-8.406,14.076-8.406,14.076
				s6.571-9.673,10.174-11.862c1.599-0.968,7.281-1.767,12.211-2.527c0.957,7.092,2.902,12.76,4.745,22.708
				c1.23,6.686,4.604,14.794,10.585,21.09h-44.826c-10.388,0-18.809-8.416-18.809-18.802V778.982z"/>
		</g>
	</g>
</g>
<g>
	<g>
		
			<image overflow="visible" opacity="0.22" width="576" height="576" xlink:href="70B2071B.png"  transform="matrix(0.24 0 0 0.24 1027.5439 535.2695)">
		</image>
		<g>
			<path d="M1102.356,556.932c0,1.1,0.887,1.996,1.985,1.996c1.1,0,1.992-0.896,1.992-1.996c0-1.099-0.893-1.993-1.992-1.993
				C1103.243,554.938,1102.356,555.833,1102.356,556.932z M1100.593,557.051c0-2.07,1.68-3.752,3.749-3.752
				c2.071,0,3.752,1.682,3.752,3.752s-1.681,3.748-3.752,3.748C1102.272,560.799,1100.593,559.121,1100.593,557.051z
				 M1088.706,647.664c0-1.1-0.893-1.992-1.993-1.992c-1.098,0-1.992,0.893-1.992,1.992c0,1.099,0.895,1.993,1.992,1.993
				C1087.813,649.657,1088.706,648.763,1088.706,647.664z M1090.462,647.546c0,2.073-1.678,3.753-3.749,3.753
				s-3.749-1.68-3.749-3.753c0-2.07,1.678-3.75,3.749-3.75S1090.462,645.476,1090.462,647.546z M1029.978,556.51
				c0-10.387,8.422-18.808,18.814-18.808h94.496c10.39,0,18.807,8.421,18.807,18.808v94.503c0,10.387-8.417,18.805-18.807,18.805
				h-94.496c-10.393,0-18.814-8.418-18.814-18.805V556.51z M1068.603,554.34c-9.502,6.168-16.438,14.803-20.509,24.51
				c-1.642,0.231-4.31,0.913-5.862,2.93c-2.344,3.049-0.705,5.512,0.586,5.512c0.204,0,0.471-0.02,0.775-0.061
				c1.511-0.414,4.322-1.816,4.322-1.816l-2.722,2.488c-0.483,2.115-0.841,4.255-1.066,6.412c-2.046,2.547-3.902,6.043-4.005,9.267
				c-0.117,3.633,0.116,3.396,0.932,3.164c0.208-0.058,0.639-0.267,1.17-0.579c1.529-1.355,3.406-3.289,3.406-3.289l-1.435,3.421
				c0.226,1.907,0.554,3.813,0.981,5.706c-1.958,2.008-7.312,8.145-9.667,17.209c-1.026,3.959-0.447,5.22,5.643,7.01
				c7.053,2.073,12.079,0.32,16.736-1.951c4.089-1.992,2.527-6.718,0.536-11.245c-2.033-4.587-3.599-7.765-4.89-9.804l0.461-0.74
				c2.809-4.504,7.229-11.354,14.105-18.84c3.167-3.721,6.925-7.314,11.21-10.625c0.403-0.33,2.676-1.924,3-2.175
				c2.395-3.878,4.212-8.011,7.004-10.574c-1.493,2.927-5.146,10.394-4.771,12.638c0.467,2.811,4.487,4.969,8.314,4.385
				c6.096-0.938,9.147-7.904,7.974-9.543c-0.897-1.255-4.12-6.97-5.593-9.584c0.667,0.348,2.277,1.674,3.96,3.154
				c9.208-6.201,12.723-6.877,16.797-10.057c4.264-3.329,6.743-9.408-5.483-14.053
				C1096.121,543.332,1082.081,545.586,1068.603,554.34z M1122.458,650.26c9.498-6.173,16.432-14.803,20.504-24.513
				c1.641-0.232,4.314-0.917,5.865-2.93c2.344-3.048,0.703-5.513-0.583-5.513c-0.211,0-0.476,0.023-0.776,0.061
				c-1.512,0.414-4.328,1.818-4.328,1.818l2.729-2.486c0.476-2.118,0.829-4.258,1.059-6.414c2.054-2.545,3.903-6.046,4.007-9.266
				c0.121-3.634-0.113-3.398-0.932-3.164c-0.206,0.058-0.636,0.268-1.168,0.58c-1.531,1.354-3.402,3.285-3.402,3.285l1.428-3.418
				c-0.226-1.912-0.55-3.814-0.982-5.703c1.959-2.011,7.317-8.146,9.671-17.215c1.022-3.959,0.443-5.217-5.645-7.01
				c-7.049-2.073-12.075-0.318-16.737,1.951c-4.09,1.992-2.526,6.72-0.53,11.244c2.028,4.596,3.592,7.77,4.889,9.803l-0.46,0.745
				c-2.813,4.502-7.236,11.353-14.111,18.837c-3.163,3.727-6.926,7.318-11.206,10.625c-0.402,0.334-2.678,1.928-3.003,2.176
				c-2.396,3.88-4.211,8.01-7.004,10.576c1.491-2.93,5.144-10.393,4.771-12.636c-0.472-2.812-4.487-4.978-8.314-4.39
				c-6.098,0.941-9.149,7.906-7.971,9.548c0.893,1.252,4.119,6.965,5.59,9.579c-0.662-0.343-2.275-1.674-3.957-3.151
				c-9.211,6.197-12.726,6.877-16.798,10.056c-4.266,3.327-6.745,9.41,5.487,14.055
				C1094.934,661.265,1108.978,659.011,1122.458,650.26z"/>
		</g>
	</g>
</g>
<g>
	<g>
		
			<image overflow="visible" opacity="0.22" width="576" height="576" xlink:href="70B2071D.png"  transform="matrix(0.24 0 0 0.24 637.6162 757.7373)">
		</image>
		<g>
			<path d="M705.315,892.286h-3.96c-0.054-0.127-0.107-0.269-0.161-0.412c-0.875-2.355,0.656-6.213,0.656-6.213s0,1.319,0.437,3.67
				C702.554,890.769,704.172,891.542,705.315,892.286z M706.112,857.552c1,0.08,3.964,0.246,5.084-0.451
				c1.355-0.848,4.406-1.781,4.074,0c-0.346,1.778-2.719,1.688-4.074,1.688c-1.356,0-2.798-0.338-3.731,0.43
				c-0.932,0.764-1.353,5.17-1.353,6.442c0-1.272-0.425-5.679-1.355-6.442c-0.938-0.768-2.377-0.43-3.734-0.43
				c-1.355,0-3.73,0.09-4.065-1.688c-0.342-1.781,2.71-0.848,4.065,0C702.141,857.798,705.105,857.632,706.112,857.552z
				 M640.05,778.977c0-10.386,8.422-18.807,18.807-18.807h94.504c10.388,0,18.807,8.421,18.807,18.807v94.504
				c0,10.383-8.419,18.806-18.807,18.806H713.09c0.088-0.269,0.135-0.505,0.135-0.698c0-1.063-1.038-2.496-1.696-3.251
				c-0.239-0.159-0.418-0.301-0.49-0.413c-0.16-0.253,0.099-0.038,0.49,0.413c1.111,0.729,3.555,1.749,3.555,1.749
				s-3.284-3.86-3.501-5.741c-0.175-1.521,0.29-5.487,0.247-7.355c0.867-0.297,1.624-0.697,2.08-1.241
				c1.781-2.117,1.955-4.92,1.955-4.92c-0.852,0.682-4.668,2.127-5.855,2.127h-3.642h-0.512h-3.646
				c-1.188,0-5.001-1.445-5.847-2.127c0,0,0.166,2.803,1.944,4.92c0.619,0.733,1.771,1.2,3.014,1.507
				c-0.009,0.955-0.059,2.251-0.234,3.326c-0.331,1.972-1.749,4.609-2.405,7.716c-0.317,1.467,0.628,2.895,1.702,3.989h-41.527
				c-10.385,0-18.807-8.423-18.807-18.806V778.977z M683.813,802.334c-0.504-0.168-8.136-0.844-12.123,0.848
				c-3.983,1.694-9.833,7.205-14.917,8.228c-5.09,1.015-11.534,0.587-11.534,0.587s5.006,2.971,9.585,2.799
				c4.575-0.166,12.799-6.438,15.425-7.71c2.631-1.277,7.798-1.527,9.92-1.277c2.121,0.258,3.141-0.338,3.475-1.27
				C683.986,803.604,683.813,802.334,683.813,802.334z M682.797,835.227c0,0,0.086,2.797,0.422,5.341
				c0.34,2.541,4.153,9.241,5.769,11.36c1.609,2.114,2.541-0.171,4.156-2.629c1.604-2.461,3.644-16.616,3.644-16.616
				s-0.684,11.951-2.289,17.298c-1.613,5.339-0.594,8.054-0.594,11.529c0,3.474,1.438,5.804,1.82,6.737
				c0.379,0.934,1.95,2.332,3.899,2.837c1.951,0.512,4.074-0.082,5.3-0.379c1.108-0.269,1.182-3.131,1.188-4.618
				c0.004,1.487,0.072,4.35,1.185,4.618c1.23,0.297,3.349,0.891,5.298,0.379c1.949-0.505,3.518-1.903,3.9-2.837
				c0.378-0.934,1.821-3.264,1.821-6.737c0-3.476,1.016-6.19-0.594-11.529c-1.61-5.347-2.286-17.298-2.286-17.298
				s2.032,14.155,3.647,16.616c1.609,2.458,2.539,4.743,4.149,2.629c1.609-2.119,5.43-8.819,5.77-11.36
				c0.336-2.544,0.421-5.341,0.421-5.341s-1.188,0.168-2.632-0.594c-1.438-0.761-2.197-2.376-2.285-2.798
				c-0.084-0.422-0.084-0.85-0.084-0.85s-0.932,0.934-1.277,2.887c-0.333,1.948-0.333,3.476-0.333,3.476s-1.189-4.752,0.679-8.393
				c1.863-3.646,5.512-3.309,6.61-5.77c1.105-2.458,0.512-5.505-1.781-7.543c-2.288-2.037-1.528-7.038-1.528-9.663
				c0-2.626-1.182-3.646-1.182-3.646s-1.783,4.5-5.851,2.891c-4.069-1.609-3.647-6.45-3.647-6.45s0.847,3.048,3.394,3.985
				c2.54,0.929,4.153-0.766,4.41-1.188c0.251-0.426,6.779-9.24,6.357-16.446c-0.428-7.206-7.294-18.399-7.294-18.399
				s2.037,11.615,1.355,17.64c-0.676,6.017-7.798,13.05-7.798,13.05s-1.267-1.864-4.581-0.255c-2.334,1.142-9.353,1.142-11.695,0
				c-3.304-1.609-4.579,0.255-4.579,0.255s-7.122-7.033-7.798-13.05c-0.678-6.024,1.352-17.64,1.352-17.64
				s-6.859,11.193-7.286,18.399c-0.422,7.206,6.106,16.021,6.36,16.446c0.25,0.422,1.867,2.116,4.406,1.188
				c2.544-0.938,3.388-3.985,3.388-3.985s0.426,4.841-3.642,6.45c-4.068,1.609-5.852-2.891-5.852-2.891s-1.188,1.02-1.188,3.646
				c0,2.625,0.767,7.626-1.524,9.663c-2.289,2.038-2.883,5.085-1.777,7.543c1.098,2.461,4.747,2.123,6.61,5.77
				c1.865,3.641,0.678,8.393,0.678,8.393s0-1.527-0.338-3.476c-0.34-1.953-1.271-2.887-1.271-2.887s0,0.428-0.084,0.85
				c-0.09,0.422-0.848,2.037-2.293,2.798C683.986,835.395,682.797,835.227,682.797,835.227z M660.329,815.049
				c0,0,2.543,0.679,4.668,0.934c2.115,0.256,9.576-1.527,11.106-1.443c1.522,0.09,8.049-3.047,8.049-3.047h-2.291
				c-1.183,0-5.591-1.105-5.591-1.105s1.271-0.845,2.709-0.845c1.443,0,4.152-1.531,4.152-1.531s-1.099-1.098-2.453-1.182
				c-1.355-0.088-4.918,1.271-4.918,1.271s-0.934-0.338-1.699-0.678c-0.759-0.338-3.556,2.625-3.556,2.625s-1.356-0.422-3.14,0.339
				C665.591,811.153,660.329,815.049,660.329,815.049z M751.887,815.049c0,0-5.25-3.896-7.033-4.662
				c-1.781-0.761-3.134-0.339-3.134-0.339s-2.805-2.963-3.566-2.625c-0.76,0.34-1.691,0.678-1.691,0.678s-3.563-1.359-4.923-1.271
				c-1.354,0.084-2.454,1.182-2.454,1.182s2.716,1.531,4.151,1.531c1.444,0,2.714,0.845,2.714,0.845s-4.411,1.105-5.595,1.105
				h-2.286c0,0,6.528,3.137,8.055,3.047c1.521-0.084,8.98,1.699,11.106,1.443C749.347,815.728,751.887,815.049,751.887,815.049z
				 M728.407,802.334c0,0-0.172,1.271,0.167,2.204c0.34,0.932,1.359,1.527,3.48,1.27c2.114-0.25,7.288,0,9.914,1.277
				c2.631,1.271,10.852,7.544,15.43,7.71c4.579,0.172,9.58-2.799,9.58-2.799s-6.442,0.428-11.529-0.587
				c-5.087-1.022-10.936-6.533-14.919-8.228C736.544,801.49,728.914,802.166,728.407,802.334z"/>
		</g>
	</g>
</g>
<g>
	<g>
		
			<image overflow="visible" opacity="0.22" width="576" height="576" xlink:href="70B2071F.png"  transform="matrix(0.24 0 0 0.24 1027.54 757.7373)">
		</image>
		<g>
			<path d="M1029.974,778.976c0-10.389,8.421-18.806,18.809-18.806h55.306c-4.232,12.323-7.333,27.09-8.903,43.316h-25.037
				c-0.372-1.056-1.073-2.263-2.354-3.474c-3.57-3.388-29.713,6.768-29.713,6.768s26.143,10.154,29.713,6.771
				c1.28-1.216,1.981-2.425,2.354-3.48h24.485c-0.077,1.116-0.146,2.236-0.211,3.363l0.14-0.01l-0.064,0.718
				c-0.811,0.037-1.515,0.073-2.053,0.093c-1.882,0.073-3.037,1.314-4.433,2.851c-1.059,1.168-2.061,2.286-3.11,3.349
				c-1.977-0.157-3.538-0.252-4.702-0.413c-4.812-0.658-7.412,8.555-3.048,10.322l-0.392-0.062
				c-5.049-0.747-6.881,9.935-1.479,10.651l0.669,0.088c-3.029,2.568-3.042,8.286,1.718,9.576l1.39,0.404
				c-2.747,2.532-2.975,7.297,1.753,8.538l0.858,0.043c1.202,0.23,5.202,0.998,10.093,1.76c1.471,0.229,2.998,0.455,4.528,0.669
				c1.531,11.034,3.779,21.238,6.61,30.274h-54.117c-10.388,0-18.809-8.418-18.809-18.806V778.976z M1112.858,760.17h30.428
				c10.387,0,18.809,8.417,18.809,18.806v24.511h-59.721C1104.22,786.961,1107.885,772.119,1112.858,760.17z M1162.095,810.071
				v15.904c-5.9,0.282-11.637,0.484-14.464,0.368c-3.626-0.143-7.115,0.18-9.985,0.598c-6.769,0.985-6.508,2.175-13.962-0.504
				c-4.317-5.16-10.206-10.083-13.247-11.643c-1.477-0.762-5.176-0.925-8.94-0.889l-0.195-0.706l0.21-0.006
				c0.071-1.044,0.149-2.085,0.23-3.123H1162.095z M1103.794,862.912c1.836,0.166,3.492,0.27,4.83,0.27
				c5.206,0,10.108-1.717,13.277-3.538l-0.022,0.083c4.154,1.001,7.533,0.525,11.252-1.537l28.964,2.249v13.042
				c0,10.388-8.422,18.806-18.809,18.806h-31.856C1108.19,883.678,1105.59,873.752,1103.794,862.912z"/>
		</g>
	</g>
</g>
<g>
	<g>
		
			<image overflow="visible" opacity="0.22" width="576" height="576" xlink:href="70B20718.png"  transform="matrix(0.24 0 0 0.24 1027.5439 312.8047)">
		</image>
		<g>
			<path d="M1135.298,392.076c-1.194,2.292-2.25,4.589-4.234,5.983c-5.239,3.671-10.381,2.749-12.768-0.663
				c-0.938-1.33-1.256-2.758-1.615-4.638C1122.976,393.932,1129.536,394.394,1135.298,392.076z M1105.383,340.288
				c-4.883,3.838-7.765,9.747-9.895,15.785c-1.449-1.247-2.525-2.244-3.214-3.716c-1.759-3.769,0.016-8.687,5.811-11.386
				C1100.288,339.939,1102.807,340.175,1105.383,340.288z M1029.978,334.05c0-10.391,8.422-18.813,18.807-18.813h94.506
				c10.385,0,18.805,8.421,18.805,18.813v94.501c0,10.385-8.42,18.802-18.805,18.802h-63.592c-2.199-2.944-4.194-6.918-5.555-12.298
				c-3.215-12.72,2.661-20.437,7.504-26.38c-0.284,0.603-0.56,1.211-0.805,1.812c-1.764,4.352-0.467,8.932,0.941,10.699
				c1.409,1.76,5.761,1.408,2.822-4.586c-2.938-5.997-0.469-8.229,1.725-14.424c0.496-1.04,0.773-2.06,0.74-3.091
				c-0.229-7.991-6.343-14.808-6.343-14.808s-4.47,0.702-5.877,6.817c-1.409,6.111-4.704,5.404-12.697,8.462
				c-7.989,3.053-9.17,5.639-10.105,12.455c-0.942,6.824-8.231,6.589-14.106,8.939c-2.832,1.129-5.713,4.879-7.945,8.46
				c-0.014-0.284-0.02-0.572-0.02-0.858V334.05z M1146.384,382.564c2.404-3.843,3.771-8.338,4.046-13.059
				c-0.2,0.235-0.394,0.456-0.572,0.642c-1.478,1.566-2.894,4.01-2.923,4.456c-0.035,0.447-0.88,2.415-1.209,3.607
				c-0.329,1.198-1.393,4.093-2.482,6.646c-1.091,2.553-3.362,0.933-3.173,0.034c0.191-0.903,1.213-3.926,1.474-5.246
				c0.258-1.321,1.015-5.462,0.875-6.057c-0.135-0.594-0.31-0.393-0.31-0.393s-2.413,3.185-3.093,4.373
				c-0.678,1.188-2.108,2.91-2.955,4.014c-0.838,1.105-2.713,3.805-4.408,5.419c-1.695,1.61-3.046,0.495-3.069-0.771
				c-0.024-1.267,2.095-3.637,3.065-5.164c0.973-1.525,2.234-3.456,2.908-4.707c0.669-1.256,2.215-4.598,2.215-4.598
				s-0.17-0.147-0.834,0.343c-0.662,0.491-3.779,4.481-4.393,5.256c-0.608,0.771-3.005,3.254-3.764,4.26
				c-0.751,1.006-3.677,4.099-4.412,3.99c-0.738-0.107-2.029-0.937-1.594-2.336c0.443-1.394,1.996-3.244,2.844-4.289
				c0.847-1.041,2.869-3.436,3.504-4.305c0.641-0.868,3.1-3.769,3.629-4.377c0.526-0.609,1.537-2.582,1.056-2.169
				c-0.481,0.417-3.304,1.757-4.196,2.641c-0.889,0.888-4.035,2.66-5.012,3.239c-0.969,0.579-5.167,4.103-6.159,2.586
				c-0.995-1.517,0.064-2.729,1.203-3.636c1.144-0.903,3.8-3.343,5.358-4.594c1.563-1.252,4.334-2.935,4.895-3.514
				c0.564-0.58,3.078-3.612,4.365-4.687c1.292-1.07,2.486-3.47,2.068-4.49c-0.423-1.016-2.991-1.944-4.811-2.106
				c-1.82-0.156-4.843,1.546-6.576,1.698c-1.733,0.152-3.513-1.211-2.94-2.552c0.572-1.345,2.887-1.821,4.173-2.483
				c1.286-0.657,4.781-1.536,6.051-1.502c1.271,0.041,5.573-0.137,8.839-1.565c1.533-0.677,3.57-0.854,5.474-0.624
				c-3.706-4.957-7.928-7.734-10.359-6.547c-4.693-2.983-9.97-4.589-15.216-4.569c-5.816-0.143-6.144-0.02-16.918,0.795
				c-2.261,0.03-4.508,0.427-6.532,1.374c-7.8,3.637-10.499,10.822-7.873,16.452c1.148,2.464,3.072,4.26,5.566,5.899
				c-5.08,8.255-11.941,12.079-14.586,12.81c-2.653,0.726-6.588-1.183-8.384,3.504c-0.043,0.123-0.089,0.25-0.132,0.378
				c0.203-0.29,0.45-0.52,0.744-0.692c2.808-1.62,8.682,3.264,13.246,10.965c4.128,7.592,5.292,14.797,2.554,16.377
				c-0.293,0.172-0.62,0.27-0.973,0.299c0.132,0.025,0.261,0.049,0.394,0.074c4.957,0.784,5.271-3.579,7.226-5.507
				c1.955-1.924,8.701-5.954,18.389-6.228c0.166,2.979,0.767,5.54,2.327,7.769c3.561,5.089,11.128,6.346,18.179,1.409
				c1.497-1.05,2.747-2.399,3.784-3.921C1139.161,394.325,1143.626,387.37,1146.384,382.564z M1049.227,410.487
				c0,0-3.998,1.295-7.524,0.588c-3.523-0.707-5.409,4.348-0.471,4.112C1046.168,414.951,1049.227,410.487,1049.227,410.487z
				 M1078.375,420.833c0,0-1.292,5.755-0.587,9.404c0.71,3.642,5.169,3.994,5.291,0.819
				C1083.193,427.885,1078.61,426.118,1078.375,420.833z M1076.141,385.568c0,0-2.698,0.589-4.466,1.998
				c-1.762,1.409-3.878,3.877-2.704,5.409c1.177,1.526,3.53,0.819,4.119-1.998C1073.675,388.155,1076.141,385.568,1076.141,385.568z
				"/>
		</g>
	</g>
</g>
<g>
	<g>
		
			<image overflow="visible" opacity="0.22" width="585" height="576" xlink:href="70B2073E.png"  transform="matrix(0.24 0 0 0.24 1025.2813 90.3394)">
		</image>
		<g>
			<path d="M1100.188,92.772h43.102c10.383,0,18.805,8.422,18.805,18.808v74.49l-22.615-49.378
				c3.992-3.463,4.372-11.252,4.406-12.681c-0.054,0.675-0.481,2.835-3.669,6.29c-3.899,4.228-12.046-0.704-22.604-7.043
				c-8.667-5.207-15.32-2.932-17.424-1.951V92.772z M1029.978,111.581c0-10.386,8.417-18.808,18.802-18.808h44.491v29.225
				l-0.437-0.325c0,0-7.573-4.754-18.13,1.587c-10.556,6.339-18.701,11.271-22.604,7.043c-3.188-3.455-3.617-5.615-3.663-6.29
				c0.032,1.49,0.44,9.888,4.926,13.095l-23.386,50.163l-2.218,4.752c0.581,1.605,1.34,3.145,2.218,4.604
				c5.438,9.083,15.371,15.161,26.727,15.161c13.181,0,24.448-8.192,28.988-19.765h-0.183l-24.717-53.982
				c8.07-1.534,19.217-7.915,22.977-7.915c4.589,0,8.03,6.693,11.93,6.693c0.163,0,0.314-0.011,0.462-0.028
				c0.146,0.017,0.3,0.028,0.455,0.028c3.903,0,7.343-6.693,11.936-6.693c3.859,0,15.521,6.734,23.631,8.03l-25.117,53.867
				c4.496,11.573,15.763,19.765,28.948,19.765c10.914,0,20.526-5.623,26.081-14.13v8.427c0,10.39-8.422,18.807-18.805,18.807
				h-94.511c-10.385,0-18.802-8.417-18.802-18.807v-9.458c-0.878-1.459-1.637-2.999-2.263-4.604l2.263-4.752V111.581z
				 M1134.282,142.056l0.247,49.965h-23.646L1134.282,142.056z M1137.988,142.171l23.013,49.85h-23.013V142.171z M1054.973,142.056
				l0.249,49.965h-23.644L1054.973,142.056z M1058.679,142.171l23.012,49.85h-23.012V142.171z"/>
		</g>
	</g>
</g>
<g>
	<g>
		
			<image overflow="visible" opacity="0.22" width="576" height="576" xlink:href="70B2073D.png"  transform="matrix(0.24 0 0 0.24 637.6162 535.2695)">
		</image>
		<g>
			<path d="M640.05,556.51c0-10.387,8.417-18.808,18.805-18.808h32.971c-1.126,2.243-1.781,4.612-1.688,7.216
				c-0.19-0.395-0.29-0.741-0.346-0.984c-0.043-0.197-1.064-3.026-1.064-3.026s-1.239,1.472-2.003,3.056
				c-1.515,3.133-1.66,6.652-0.644,9.937c-2.379-0.955-4.03-3.081-5.691-4.735c0.726,5.4,1.652,11.861,7.404,14.934
				c0.125,0.068,0.265,0.139,0.412,0.215c-2.903,2.725-7.455,6.468-8.038,8.909c-0.809,3.386,1.781,8.238-1.782,11.474
				c-3.559,3.236-18.604,22.357-18.604,22.357s-0.647,2.355,1.131,2.5c1.781,0.148,10.833-3.36,11.477-0.482
				c0.226,1.006-5.972,5.634-6.619,7.254c-0.649,1.612,0.97,7.35,1.937,8.528c0.972,1.177,4.534,2.208,4.534,2.208l-1.456-3.828
				c0,0,2.587,2.504,7.278,2.65c4.695,0.146,18.126,0.443,20.063,1.03c1.946,0.585-0.647,5.441-3.72,3.973
				c-3.073-1.476-13.751-4.56-17.314-4.124c-3.559,0.447-5.324,3.403-8.088,6.916c-0.887,1.129-2.434,5.024-2.434,5.024l5.602-2.438
				c0,0-1.175,1.802-1.338,3.862c-0.161,2.057,0.76,4.29,0.76,4.29l4.529-5.296c0,0-0.551,2.749,0.644,5.738
				c0.705,1.747,2.594,3.091,2.594,3.091s-0.963-2.989,0.938-4.942c0.729,2.906,2.12,3.534,3.105,4.053
				c1.2,0.641,2.266,0.89,2.266,0.89s-1.953-2.467,0.107-3.637c0.559-0.314,4.633-2.601,9.189-5.208
				c-1.345,3.602-2.078,7.234-1.521,9.944c1.59,7.705,4.756,8.519,4.756,8.519c0.897-1.964,2.572-3.55,3.631-5.249
				c-1.157,6.146-0.495,12.248,2.001,17.499h-44.978c-10.388,0-18.805-8.415-18.805-18.805V556.51z M696.537,537.702h56.823
				c10.386,0,18.809,8.421,18.809,18.808v94.503c0,10.39-8.423,18.805-18.809,18.805h-45.035c-0.277-0.523-0.523-1.069-0.735-1.631
				c-3.509-9.208-1.797-15.1,0.837-23.786c-4.264,2.681-7.086,3.48-9.114,8.111c-1.095-0.759-2.05-2.471-2.319-5.4
				c-0.324-3.496,0.613-6.737,1.958-9.478c4.325-2.497,8.584-4.997,10.295-6.167c3.885-2.646,3.56-6.318,2.751-10.143
				c-0.811-3.83-7.583-11.346-1.615-16.771c10.443-9.498,8.737-22.944,6.631-26.184c-2.104-3.235-6.106-8.551-7.119-10.143
				c-9.293-14.652-16.826-8.684-17.961-6.475c-0.205,0.4-0.66,0.934-1.266,1.545c-4.241-0.796-5.699-8.077-5.699-8.077
				c2.125,0.878,4.937,1.771,7.196,1.692c-1.83-3.265-2.744-5.438-2.144-9.212c1.458,1.63,3.492,2.379,5.489,3.323
				c-0.994-5.236-2.08-7.859,0.841-13.003L696.537,537.702z M718.398,560.049c0,0-0.497-0.844-0.163-2.136
				c0.73-2.79,2.445-3.628,5.259-3.896c8.417-0.813,7.524,12.652,9.871,20.592c1.208,4.089,4.935,6.842,4.935,6.842
				s-1.616-5.812-1.616-7.062c0-6.182,1.052-9.12,0.323-15.079c-0.728-5.957-4.773-9.926-9.708-10.959
				c-4.937-1.023-9.87,1.988-10.44,5.451C716.271,557.414,718.398,560.049,718.398,560.049z M687.152,589.48
				c0-0.922,1.715-2.371,1.583-3.559c-0.129-1.18-0.008-1.975,0.361-3.109c0.441-1.365,2.276-2.291,4.12-0.84
				c1.845,1.449,5.667,2.236,5.534,2.9c-0.133,0.656-7.768,1.894-8.428,2.949C689.665,588.877,687.152,590.404,687.152,589.48z"/>
		</g>
	</g>
</g>
<g>
	<g>
		
			<image overflow="visible" opacity="0.22" width="576" height="576" xlink:href="70B2073A.png"  transform="matrix(0.24 0 0 0.24 637.6172 312.8047)">
		</image>
		<g>
			<path d="M640.05,334.045c0-10.385,8.422-18.807,18.807-18.807h39.939c-18.135,7.22-24.033,28.854-24.424,33.149
				c-0.47,5.172,2.353,10.944,2.353,13.162c0,4.231-9.404,13.753-10.111,16.928c-0.903,4.064,3.059,4.703,4.702,5.173
				c1.647,0.466,3.529,0.938,3.529,1.88c0,0.942-3.646,5.993-2.822,7.053c0.822,1.054,1.998,2.233,1.998,2.233
				s-2.939,3.882-1.645,5.409c1.29,1.526,2.705,2.233,3.877,2.704c1.175,0.467-2.587,4.231-2.116,7.52
				c0.472,3.293,1.999,7.641,9.876,8.465c7.872,0.819,11.279,1.359,14.574,2.234c3.999,1.055,7.639,6.818,7.993,9.403
				c0.248,1.84,3.9,11.441,5.982,16.804h-53.706c-10.385,0-18.807-8.417-18.807-18.805V334.045z M681.352,365.319
				c0,0-0.043-1.076-0.125-3.481c-0.011-0.314,0.023-0.613,0.093-0.893c1.858-1.551,3.091-1.885,7.106,0.604
				c0.755,0.472,1.646,1.277,2.603,2.283c-1.413,0.638-3.408,1.644-4.747,1.787C683.724,365.888,681.352,365.319,681.352,365.319z
				 M731.313,315.238h13.084h8.965c10.386,0,18.807,8.422,18.807,18.807v94.503c0,1.871-0.275,3.675-0.78,5.38
				c-2.207,7.419-8.884,12.926-16.909,13.396c-0.368,0.021-0.744,0.029-1.117,0.029H737.95c-2.079-5.362-5.731-14.963-5.981-16.804
				c-0.354-2.584-4.584-12.697-7.995-12.697c-3.405,0-6.7,0.944-14.571,0.118c-7.879-0.823-9.404-4.23-9.875-7.523
				c-0.473-3.289,3.291-7.053,2.114-7.52c-1.172-0.471-2.587-1.178-3.876-2.704c-1.295-1.526,1.644-5.409,1.644-5.409
				s-1.174-1.179-1.998-2.233c-0.822-1.061,2.82-6.111,2.82-7.053c0-0.942-1.881-1.414-3.526-1.88
				c-1.644-0.47-5.605-1.109-4.702-5.173c0.706-3.174,10.11-12.696,10.11-16.928c0-2.218-2.822-7.99-2.35-13.162
				c0.39-4.295,6.288-25.929,24.421-33.149H731.313z M707.546,365.319c0,0,2.373,0.568,4.931,0.299
				c1.342-0.143,3.334-1.149,4.743-1.787c-0.951-1.006-1.846-1.811-2.597-2.283c-4.014-2.488-5.251-2.154-7.109-0.604
				c-0.066,0.28-0.099,0.579-0.09,0.893C707.508,364.243,707.546,365.319,707.546,365.319z"/>
		</g>
	</g>
</g>
</svg>
